<?xml version="1.0" standalone="no"?>
<!DOCTYPE svg PUBLIC "-//W3C//DTD SVG 20010904//EN"
 "http://www.w3.org/TR/2001/REC-SVG-20010904/DTD/svg10.dtd">
<svg version="1.0" xmlns="http://www.w3.org/2000/svg"
 width="16.000000pt" height="16.000000pt" viewBox="0 0 16.000000 16.000000"
 preserveAspectRatio="xMidYMid meet">

<g transform="translate(0.000000,16.000000) scale(0.100000,-0.100000)"
fill="#000000" stroke="none">
<path d="M123 120 c3 -11 1 -18 -4 -14 -5 3 -9 0 -9 -5 0 -6 4 -11 10 -11 17
0 -1 -28 -21 -33 -10 -3 -17 -1 -13 4 3 5 -1 9 -8 9 -15 -1 -63 -38 -57 -45 7
-6 92 15 106 27 16 13 17 88 2 88 -6 0 -9 -9 -6 -20z"/>
</g>
</svg>
